<?xml version="1.0" encoding="UTF-8"?><svg id="Layer_2" xmlns="http://www.w3.org/2000/svg" viewBox="0 0 250 373.38"><defs><style>.cls-1{fill:#f96e46;}.cls-2{fill:#f9c846;}.cls-3{fill:#00e8fc;}.cls-4{fill:#1a1a1a;}</style></defs><g id="Layer_1-2"><g><rect class="cls-2" x="2.53" y="2.53" width="244.94" height="300.17" rx="13.79" ry="13.79"/><path class="cls-1" d="m155.16,282.78l-11.83,7.69-4.55,12.23H16.32c-7.61,0-13.79-6.17-13.79-13.79V126.25L47.64,34.57l48,1.07,25.78,100.11,26.56,46.37-11.8,27.82-8.43,21.92,17.71,26.98,9.72,23.93Z"/><path class="cls-4" d="m140.54,305.23H16.32c-9,0-16.32-7.32-16.32-16.32V125.66L46.08,32.01l51.53,1.14,26.17,101.64,27.01,47.17-12.28,28.94-7.95,20.67,17.13,26.1.09.23,10.5,25.86-12.88,8.37-4.87,13.09ZM5.06,126.84v162.07c0,6.21,5.05,11.26,11.26,11.26h120.71l4.23-11.36,10.78-7.01-8.84-21.77-18.28-27.86,8.93-23.21,11.31-26.67-26.11-45.58-.09-.33-25.3-98.26-44.47-.99L5.06,126.84Z"/><path class="cls-3" d="m247.47,16.32v143l-.14,1.76-10.05-.45-23.12,9.7-20.12,15.6h-29.2l-39.84-44.97-29.72-107.11-26.99-13.18-5.44-18.13h170.83c7.61,0,13.79,6.17,13.79,13.79Z"/><path class="cls-4" d="m249.67,13.03c-1.52-7.43-8.11-13.03-15.98-13.03H16.32C7.32,0,0,7.32,0,16.32v272.6c0,9,7.32,16.32,16.32,16.32h217.37c9,0,16.32-7.32,16.32-16.32V16.32c0-1.12-.11-2.22-.33-3.28Zm-4.73,3.28v141.6c-3.22-2.51-7.47-3.31-11.38-2.11l-4.95,1.51c-.89.27-1.75.61-2.57,1.03l-2.01,1c-2.71,1.35-5.19,3.12-7.36,5.23l-.04.04-4.92,2.27c-.6.28-1.21.53-1.83.76l-12.5,4.65c-1.48.55-2.86,1.33-4.09,2.31l-.5.4c-1.23.98-2.34,2.1-3.31,3.34h0c-.61.78-1.51,1.28-2.5,1.39-1.63.18-3.29-.02-4.83-.59l-12.47-4.59c-1.42-.52-2.67-1.44-3.59-2.65l-2.51-3.29c-2.13-2.79-3.66-4.75-6.85-6.21l-4.83-1.91c-1.49-.68-2.73-1.82-3.52-3.26l-4.4-7.91c-.66-1.18-1.2-2.43-1.61-3.72l-1.8-5.65c-.48-1.49-1.15-2.92-2-4.23l-5.19-8.02c-.28-.43-.53-.88-.74-1.34l-2.63-3.86c-.26-.56.44-1.58.73-2.12l3.42-6.43c.33-.61.5-1.29.51-1.99l.02-1.2c.04-2.72-1.1-5.32-3.13-7.13l-3.54-3.17c-.64-.57-1.36-1.06-2.13-1.44l-3.06-1.5c-.3-.15-.67-.07-.88.2l-1.05,1.32c-.23.29-.6.42-.96.34l-1.39-.3c-.33-.07-.6-.3-.71-.62l-3.93-10.85-.41-1.02c-.86-2.16-1.34-4.46-1.42-6.79-.04-1.17-.18-2.34-.42-3.49l-1.88-8.93c-.24-1.13-.57-2.23-.99-3.3l-4.16-10.51c-.2-.51-.38-1.03-.54-1.55l-3.61-11.83-.94-3.65c-.32-1.26-.45-2.56-.36-3.86l.1-1.39c.05-.72-.31-1.41-.93-1.77l-1.74-1.02c-.49-.29-.96-.62-1.41-.97l-.14-.11c-.9-.72-2.08-1.01-3.22-.79l-1.27.25c-5.19-5.52-10.57-14.57-14.46-21.83h157.58c6.21,0,11.26,5.05,11.26,11.26ZM5.06,288.91v-56c8.1-10.85,20.9-30.58,25.96-52.74,7.67-33.56,6.02-26.37,7.67-47.21,1.66-20.84,3.76-20.84,5.86-33.78,2.09-12.94.77-30.91,4.41-38.81,3.64-7.9,18.21-4.54,26.49-8.38,5.98-2.77,14.55-6.17,18.85-12.18l.03.08,4.07,14.66.55,4.97.89,11.02c.12,1.54.42,3.06.89,4.53l1.68,5.29c.5,1.56.8,3.17.91,4.79l.36,5.35c.07,1,.21,2,.42,2.98l2.92,13.32c.05.22.13.42.26.61.52.81.79,1.75.78,2.71l-.07,5.05c0,.06-.01.15-.02.2l-1.86,11.95c-.44,2.79-.38,5.64.16,8.41.39,2.01.81,4.02.89,4.64l.69,5.36c.13,1.04.33,2.07.58,3.08l.59,2.35c.16.65.3,1.3.41,1.96l.07.4c.61,3.57,1.94,6.98,3.91,10.02l1.41,2.17c1.01,1.56,2.2,2.98,3.55,4.25l3.42,3.19,4.82,4.5c.42.4.86.78,1.32,1.14l4.93,3.94c.73.59,1.43,1.22,2.09,1.89l.34.35c1.14,1.17,1.42,2.92.7,4.39l-3.13,6.39c-.21.44-.45.86-.71,1.27l-5.51,8.6-2.06,3.49-6.17,10.47-3.85,7.23c-.35.65-.49,1.39-.41,2.12l.09.85c.15,1.34.68,2.62,1.53,3.67l14.43,17.93c.56.69,1.06,1.42,1.51,2.18l9.08,15.46c.46.79,1.43,1.12,2.28.78l2.82-1.12,2.42,7.07c-.97.63-1.66,1.62-1.9,2.76l-.66,3.08c-.2.93-.55,1.83-1.03,2.65l-.72,1.23c-.4.68-.89,1.3-1.45,1.85l-1.43,1.39c-.67.65-1.14,1.49-1.33,2.41-.09.44-.12.89-.09,1.33-.8,0-1.67.05-2.59.13-6.51.56-13.26,4.78-17.11,7.59H16.32c-6.21,0-11.26-5.05-11.26-11.26Zm228.63,11.26h-79.31c-1.05-.77-2.09-1.65-2.81-2.53-1.34-1.63-2.86-3.61-6.42-4.59l3.71-1.47,9.18-3.98c.62-.27,1.21-.59,1.78-.95l4.29-2.78c.55-.36.77-1.05.53-1.66l-1.18-2.99c-.07-.17-.17-.32-.29-.45l-1.93-1.98c-.73-.75-1.39-1.58-1.96-2.46l-1.51-2.33c-.39-.6-.73-1.24-1.02-1.89l-3.96-9.12-5.19-12.27c-.6-1.42-1.32-2.78-2.16-4.08l-3.66-5.66-1.53-2.36c-.95-1.46-2.03-2.83-3.25-4.07l-.62-.64c-.46-.47-.54-1.19-.21-1.76l4.78-8.1c.55-.94,1.19-1.82,1.9-2.65l8.07-9.39c.88-1.03,1.65-2.15,2.29-3.34l2.92-5.49c.31-.59.9-.98,1.57-1.04l29.04-2.55c2.99-.26,5.81-1.5,8.02-3.52l4.72-4.31,14.18-14.27c.56-.56,1.18-1.07,1.85-1.5l2.31-1.5c.83-.54,1.72-.97,2.65-1.29l12.73-4.35,7.83-2.49c1.27-.41,2.59-.64,3.93-.7v125.26c0,6.21-5.05,11.26-11.26,11.26Z"/></g><g><g><path d="m3.53,345.24c0-1,.96-1.55.96-3.18v-16.91c0-1.67-.96-2.22-.96-3.22s.3-1.29.92-1.29h14.06c.81,0,1.3.52,1.52,1.37.55,2.26.96,4.07,1.29,5.59.3,1.44-.26,2.59-1.78,2.59-2.77,0-3.07-5-5.51-5h-.37c-.96,0-1.41.63-1.41,1.63v5.22h.89c1.33,0,1.7-1.67,3.07-1.67.89,0,1.15.59,1.15,1.29v4.18c0,.67-.26,1.26-1.15,1.26-1.37,0-1.74-1.67-3.07-1.67h-.89v4.96c0,1,.44,1.59,1.41,1.59h.78c2.44,0,2.74-5,5.55-5,1.52,0,2.07,1.18,1.78,2.63-.33,1.52-.74,3.29-1.29,5.55-.22.89-.7,1.37-1.52,1.37H4.46c-.63,0-.92-.3-.92-1.29Z"/><path d="m22.48,337.02c0-5.14,2.96-9.81,7.96-9.81,1.63,0,2.85.52,3.77,1.37v-3.48c0-1.63-.96-1.81-.96-2.81s.44-1.18,1.37-1.33c1-.19,4.07-.7,5.33-.89,1.29-.18,1.74.37,1.74,1.41v20.31c0,1.63,1.29,1.85,1.29,2.85s-.48,1.26-1.41,1.41c-1,.19-3.74.7-5.03.89-1.29.18-1.74-.37-1.74-1.41v-.63c-.92,1.26-2.29,2.07-4.4,2.07-5.22,0-7.92-4.51-7.92-9.95Zm9.73,5c1.15,0,2-1.67,2-5s-.85-5-2-5-2.11,1.89-2.11,5,.92,5,2.11,5Z"/><path d="m43.7,337.02c0-5.14,2.96-9.81,7.96-9.81,1.63,0,2.85.52,3.77,1.37v-3.48c0-1.63-.96-1.81-.96-2.81s.44-1.18,1.37-1.33c1-.19,4.07-.7,5.33-.89,1.29-.18,1.74.37,1.74,1.41v20.31c0,1.63,1.29,1.85,1.29,2.85s-.48,1.26-1.41,1.41c-1,.19-3.74.7-5.03.89-1.29.18-1.74-.37-1.74-1.41v-.63c-.92,1.26-2.29,2.07-4.4,2.07-5.22,0-7.92-4.51-7.92-9.95Zm9.73,5c1.15,0,2-1.67,2-5s-.85-5-2-5-2.11,1.89-2.11,5,.92,5,2.11,5Z"/><path d="m65.26,345.24c0-1,.96-1.55.96-3.18v-9.77c0-1.63-.96-1.81-.96-2.81s.48-1.18,1.37-1.33c1.04-.22,4.07-.7,5.37-.89,1.26-.18,1.74.37,1.74,1.41v13.39c0,1.63.96,2.18.96,3.18s-.3,1.29-.92,1.29h-7.59c-.59,0-.92-.33-.92-1.29Zm4.66-27.23c2.37,0,4.29,1.81,4.29,4.03s-1.92,4.03-4.29,4.03-4.29-1.81-4.29-4.03,1.92-4.03,4.29-4.03Z"/><path d="m75.36,337.73c0-5.74,3.89-10.51,9.51-10.51,5.18,0,7.36,4.03,7.36,7.51,0,1.59-.67,2.7-2.92,2.7h-6.33c.41,2.22,1.59,3.7,4.11,3.7,2.37,0,3.48-1.92,4.55-1.04,1.37,1.15-.26,6.88-7.07,6.88-5.77,0-9.21-3.7-9.21-9.25Zm10.36-3.7c.18-1.85-.07-3.33-1.11-3.33-.96,0-1.59,1.44-1.78,3.55l2.89-.22Z"/><path d="m100.75,345.24c0-1,.96-1.55.96-3.18v-16.95c0-1.63-.96-2.18-.96-3.18s.3-1.29.89-1.29h5.4c1.44,0,1.85.44,2.41,1.52.41.81,3.29,6.92,3.29,6.92,0,0,2.81-5.85,3.4-6.96.48-.89,1.04-1.48,2.41-1.48h6.48c.63,0,.92.33.92,1.29s-.96,1.55-.96,3.22v16.91c0,1.63.96,2.18.96,3.18s-.3,1.29-.92,1.29h-7.88c-.59,0-.92-.3-.92-1.29s1-1.55,1-3.18v-11.14c-1.44,2.74-2.63,5.03-2.92,5.48-.56.85-1.07,1.74-2.52,1.74-1.55,0-2.26-1-2.78-1.89-.22-.33-1.41-2.66-2.74-5.33v11.14c0,1.63.96,2.18.96,3.18s-.3,1.29-.93,1.29h-4.66c-.59,0-.89-.3-.89-1.29Z"/><path d="m126.96,341.46c0-4.44,4.14-5.88,9.4-5.99v-2.59c0-1.63-.26-2.18-1-2.18-.67,0-1.11.78-1.52,1.92-.3,1-.7,1.85-2.33,1.85-1.78,0-3.4-1.22-3.4-2.78,0-2.55,3.07-4.48,7.29-4.48,7.96,0,8.33,5.22,8.33,6.99v6.88c0,1.85.74,1.26,1.18,1.81.96,1.18-.26,4.07-3.92,4.07-2.11,0-3.29-1.04-3.88-2.55-.67,1.41-2.04,2.55-4.7,2.55-3.63,0-5.44-2.18-5.44-5.51Zm8.14.96c.81,0,1.26-.89,1.26-2.11v-1.74c-1.74.07-2.37.85-2.37,2.15,0,.89.33,1.7,1.11,1.7Z"/><path d="m145.91,345.24c0-1,.96-1.55.96-3.18v-9.77c0-1.63-.96-1.81-.96-2.81s.48-1.18,1.37-1.33c1.04-.18,3.77-.7,5.07-.89s1.74.37,1.74,1.41v.52c.78-1.15,1.85-1.96,3.55-1.96,2.48,0,3.85,1.74,3.85,3.89,0,1.85-.7,5-3.11,5-1.22,0-1.74-.85-2.04-1.7-.26-.67-.59-1.22-1.15-1.22-.7,0-.96.63-.96,2v6.88c0,1.63.96,2.18.96,3.18s-.3,1.29-.92,1.29h-7.44c-.59,0-.92-.33-.92-1.29Z"/><path d="m161.66,337.1c0-5.51,3.44-9.88,9.51-9.88s9.55,4.37,9.55,9.88-3.44,9.88-9.55,9.88-9.51-4.37-9.51-9.88Zm9.51,5.85c1.44,0,2.18-2.33,2.18-5.85s-.74-5.85-2.18-5.85-2.15,2.33-2.15,5.85.74,5.85,2.15,5.85Z"/><path d="m186.16,345.01c-.26-.52-3.4-8.62-5.07-12.88-.63-1.59-1.55-2.22-1.55-3.22s.3-1.29.92-1.29h7.84c.63,0,.92.33.92,1.29s-1.07,1.67-.55,3.22l2.15,6.25,2.07-6.25c.52-1.7-.59-2.22-.59-3.22s.33-1.29.92-1.29h4.37c.63,0,.93.33.93,1.29s-1.15,1.55-1.78,3.22l-4.85,12.84c-.3.85-1.07,1.55-2.48,1.55h-.7c-1.15,0-2.11-.48-2.55-1.52Z"/><path d="m199.13,345.24c0-1,.96-1.55.96-3.18v-9.77c0-1.63-.96-1.81-.96-2.81s.48-1.18,1.37-1.33c1.04-.22,4.07-.7,5.37-.89,1.26-.18,1.74.37,1.74,1.41v13.39c0,1.63.96,2.18.96,3.18s-.3,1.29-.92,1.29h-7.59c-.59,0-.92-.33-.92-1.29Zm4.66-27.23c2.37,0,4.29,1.81,4.29,4.03s-1.92,4.03-4.29,4.03-4.29-1.81-4.29-4.03,1.92-4.03,4.29-4.03Z"/><path d="m209.14,337.73c0-5.7,3.85-10.51,9.84-10.51,4.44,0,6.99,2.26,6.99,5.07,0,1.74-1.44,3.15-3.22,3.15-2.29,0-2.81-1.33-3-2.63-.18-1.22-.48-2.11-1.33-2.11-1.11,0-1.81,2-1.81,4.7,0,3.33,1.07,5.74,4.29,5.74,2.37,0,3.44-1.92,4.55-1.04,1.37,1.15-.26,6.88-7.1,6.88-5.62,0-9.21-3.48-9.21-9.25Z"/><path d="m226.82,345.24c0-1,1-1.55,1-3.18v-16.95c0-1.63-1-1.81-1-2.81s.48-1.18,1.41-1.33c1-.19,4.03-.7,5.33-.89,1.29-.18,1.74.37,1.74,1.41v7.62c1.04-1.07,2.55-1.89,4.81-1.89,3.88,0,6.11,2.52,6.11,6.77v8.07c0,1.63,1,2.18,1,3.18s-.33,1.29-.93,1.29h-7.58c-.63,0-.93-.33-.93-1.29s.96-1.55.96-3.18v-6.73c0-1.85-.56-2.7-1.7-2.7s-1.7,1-1.74,2.92v6.51c0,1.63.96,2.18.96,3.18s-.3,1.29-.92,1.29h-7.59c-.59,0-.92-.33-.92-1.29Z"/></g><g><path d="m30.26,358.45v11.28h-1.37v-8.8l-4.04,6.51h-.62l-4.04-6.51v8.8h-1.35v-11.28h1.35l4.35,6.99,4.34-6.99h1.37Z"/><path d="m40.73,366.13h-6.67c.05,1.46,1.13,2.53,2.78,2.53,1.32,0,2.11-.71,2.46-1.43l1.21.16c-.32,1.1-1.56,2.49-3.67,2.49-2.43,0-4.15-1.79-4.15-4.23,0-2.26,1.64-4.13,4.02-4.13s4.02,1.99,4.02,4.26v.35Zm-6.67-.99h5.3c-.08-1.25-1.08-2.4-2.65-2.4s-2.6,1.08-2.65,2.4Z"/><path d="m55.3,364.72v5h-1.37v-4.59c0-1.38-.62-2.32-1.78-2.32-1.38,0-2.26,1.4-2.35,3.08v3.83h-1.37v-4.59c0-1.38-.64-2.32-1.78-2.32-1.38,0-2.26,1.4-2.35,3.08v3.83h-1.37v-8.04h1.29l.06,1.4c.68-.87,1.64-1.56,2.84-1.56s2.1.7,2.46,1.81c.7-1,1.7-1.81,3.03-1.81,1.72,0,2.67,1.32,2.67,3.19Z"/><path d="m57.42,365.69c0-2.29,1.84-4.16,4.27-4.16s4.26,1.87,4.26,4.16-1.81,4.19-4.26,4.19-4.27-1.88-4.27-4.19Zm7.16,0c0-1.56-1.24-2.88-2.89-2.88s-2.91,1.32-2.91,2.88,1.27,2.91,2.91,2.91,2.89-1.32,2.89-2.91Z"/><path d="m72.39,361.88l-.24,1.19c-.16-.11-.48-.25-.86-.25-1.24,0-1.76,1.4-1.76,2.91v4h-1.37v-8.04h1.29l.08,1.29v.03c.41-.86.97-1.48,1.84-1.48.49,0,.84.19,1.02.35Z"/><path d="m74.31,359.57c0-.44.35-.78.78-.78s.78.33.78.78-.33.78-.78.78-.78-.35-.78-.78Zm1.46,10.15h-1.37v-8.04h1.37v8.04Z"/><path d="m82.22,361.53c1.57,0,2.8.92,3.3,2.13l.06-1.97h1.3v8.04h-1.3l-.06-1.97c-.51,1.21-1.73,2.13-3.3,2.13-2.3,0-4-1.88-4-4.19s1.7-4.16,4-4.16Zm.27,7.07c1.65,0,2.89-1.32,2.89-2.91s-1.24-2.88-2.89-2.88-2.91,1.32-2.91,2.88,1.27,2.91,2.91,2.91Z"/><path d="m90.88,369.72h-1.37v-11.91h1.37v11.91Z"/><path d="m100.12,366.58c.09,1.37,1.16,2.02,2.25,2.02,1.3,0,2.1-.68,2.1-1.62,0-1.19-1.08-1.76-2.43-2.45-1.99-1.06-3.05-1.79-3.05-3.48s1.43-2.76,3.21-2.76,3.13,1.38,3.22,3.08h-1.37c-.1-1.05-.83-1.79-1.86-1.79s-1.84.62-1.84,1.54c0,1.18.89,1.57,2.13,2.18,1.99,1.02,3.34,1.95,3.34,3.73s-1.49,2.86-3.45,2.86c-2.06,0-3.53-1.43-3.62-3.3h1.37Z"/><path d="m111.99,362.81c-1.54,0-2.94,1.22-2.94,2.88s1.4,2.91,2.94,2.91c.91,0,1.64-.35,2.3-1.02v1.33c-.62.6-1.48.97-2.51.97-2.35,0-4.16-1.89-4.16-4.19s1.81-4.16,4.16-4.16c1.03,0,1.89.37,2.51.97v1.32c-.67-.65-1.4-1-2.3-1Z"/><path d="m124.17,365.02v4.7h-1.37v-4.13c0-2.02-.86-2.78-2.1-2.78-1.91,0-2.67,1.67-2.67,2.81v4.1h-1.37v-11.91h1.37v5.27c.73-.87,1.76-1.56,3.14-1.56,1.86,0,2.99,1.22,2.99,3.49Z"/><path d="m126.19,365.69c0-2.29,1.84-4.16,4.27-4.16s4.26,1.87,4.26,4.16-1.81,4.19-4.26,4.19-4.27-1.88-4.27-4.19Zm7.16,0c0-1.56-1.24-2.88-2.89-2.88s-2.91,1.32-2.91,2.88,1.27,2.91,2.91,2.91,2.89-1.32,2.89-2.91Z"/><path d="m138.24,369.72h-1.37v-11.91h1.37v11.91Z"/><path d="m144.54,361.53c1.57,0,2.8.92,3.3,2.13l.06-1.97h1.3v8.04h-1.3l-.06-1.97c-.51,1.21-1.73,2.13-3.3,2.13-2.3,0-4-1.88-4-4.19s1.7-4.16,4-4.16Zm.27,7.07c1.65,0,2.89-1.32,2.89-2.91s-1.24-2.88-2.89-2.88-2.91,1.32-2.91,2.88,1.27,2.91,2.91,2.91Z"/><path d="m156.07,361.88l-.24,1.19c-.16-.11-.48-.25-.86-.25-1.24,0-1.76,1.4-1.76,2.91v4h-1.37v-8.04h1.29l.08,1.29v.03c.41-.86.97-1.48,1.84-1.48.49,0,.84.19,1.02.35Z"/><path d="m158.94,367.5c.21.73.89,1.22,2.02,1.22.97,0,1.65-.41,1.65-1.05,0-.91-.83-1.1-2.51-1.73-1.18-.4-2.26-1-2.26-2.27,0-1.35,1.33-2.14,2.72-2.14,1.7,0,2.83.97,2.91,2.27h-1.35c-.1-.73-.79-1.13-1.53-1.13-.65,0-1.4.35-1.4,1,0,.73.81.94,2.41,1.56,1.51.56,2.37,1.27,2.37,2.48,0,1.33-1.29,2.18-3.05,2.18s-3.16-.84-3.35-2.38h1.37Z"/><path d="m173.45,365.02v4.7h-1.37v-4.13c0-2.02-.86-2.78-2.1-2.78-1.91,0-2.67,1.67-2.67,2.81v4.1h-1.37v-11.91h1.37v5.27c.73-.87,1.76-1.56,3.14-1.56,1.86,0,2.99,1.22,2.99,3.49Z"/><path d="m175.84,359.57c0-.44.35-.78.78-.78s.78.33.78.78-.33.78-.78.78-.78-.35-.78-.78Zm1.46,10.15h-1.37v-8.04h1.37v8.04Z"/><path d="m180.05,361.69h1.29l.08,1.89c.49-1.21,1.79-2.05,3.3-2.05,2.3,0,4,1.87,4,4.16s-1.7,4.19-4,4.19c-1.51,0-2.81-.84-3.3-2.07v5.56h-1.37v-11.69Zm4.38,6.91c1.65,0,2.92-1.32,2.92-2.91s-1.27-2.88-2.92-2.88-2.89,1.32-2.89,2.88,1.25,2.91,2.89,2.91Z"/><path d="m197.62,359.73v3.54h3.94v1.29h-3.94v5.16h-1.37v-11.28h6.05v1.29h-4.69Z"/><path d="m211.33,361.69v8.04h-1.29l-.05-1.41c-.75.87-1.78,1.57-3.18,1.57-1.86,0-2.99-1.22-2.99-3.5v-4.7h1.37v4.13c0,2.02.86,2.78,2.1,2.78,1.91,0,2.67-1.67,2.67-2.81h.02v-4.1h1.35Z"/><path d="m221.45,365.02v4.7h-1.37v-4.13c0-2.02-.86-2.78-2.1-2.78-1.91,0-2.67,1.67-2.67,2.81v4.1h-1.37v-8.04h1.29l.06,1.4c.73-.86,1.78-1.56,3.16-1.56,1.86,0,2.99,1.22,2.99,3.49Z"/><path d="m227.48,361.53c1.51,0,2.8.86,3.3,2.05v-5.77h1.37v11.91h-1.3l-.06-1.91c-.51,1.21-1.79,2.07-3.3,2.07-2.3,0-4-1.88-4-4.19s1.7-4.16,4-4.16Zm.27,7.07c1.65,0,2.89-1.32,2.89-2.91s-1.24-2.88-2.89-2.88-2.91,1.32-2.91,2.88,1.27,2.91,2.91,2.91Z"/></g></g></g></svg>